<?xml version="1.0" encoding="UTF-8"?>
<svg version="1.1" xmlns="http://www.w3.org/2000/svg" width="1424" height="411">
<path d="M0 0 C8.44151552 8.38409025 9.99456333 24.72474448 10.11352539 36.0390625 C10.11336918 37.90104917 10.10784692 39.76304121 10.09765625 41.625 C10.09553383 43.10625366 10.09553383 43.10625366 10.09336853 44.61743164 C10.08780927 47.74498636 10.07526446 50.87246723 10.0625 54 C10.05747973 56.13150938 10.05291775 58.26301988 10.04882812 60.39453125 C10.03785322 65.596379 10.02115612 70.79818422 10 76 C8.3588623 76.61379517 8.3588623 76.61379517 6.68457031 77.23999023 C5.23241359 77.78366927 3.78026561 78.32737167 2.328125 78.87109375 C1.60898926 79.13998413 0.88985352 79.40887451 0.14892578 79.68591309 C-6.26936386 82.09002101 -12.64362142 84.58118739 -18.95703125 87.25 C-19.98183594 87.683125 -21.00664062 88.11625 -22.0625 88.5625 C-22.98160156 88.95566406 -23.90070313 89.34882813 -24.84765625 89.75390625 C-28.83813182 91.33130613 -32.92926578 92.64308859 -37 94 C-37 79.48 -37 64.96 -37 50 C-41.3621875 50.55429688 -45.724375 51.10859375 -50.21875 51.6796875 C-53.74314515 52.12743455 -57.26754441 52.57514923 -60.79194641 53.02284241 C-64.48679646 53.49219589 -68.18163961 53.96160358 -71.87646484 54.43115234 C-75.44912439 54.88517366 -79.02180449 55.33903292 -82.59449768 55.79278946 C-84.59031521 56.04631201 -86.58611254 56.2999935 -88.58190918 56.55368042 C-91.10368525 56.87391075 -93.62561485 57.19293459 -96.14770508 57.51068115 C-98.86728934 57.85612299 -101.58557973 58.20775361 -104.3034668 58.565979 C-105.73030418 58.75119393 -107.15714333 58.9363953 -108.58398438 59.12158203 C-109.86092163 59.28965363 -111.13785889 59.45772522 -112.45349121 59.63088989 C-116 60 -116 60 -122 60 C-122 108.18 -122 156.36 -122 206 C-111.605 204.515 -111.605 204.515 -101 203 C-96.3394819 202.37928607 -91.67991347 201.76564761 -87.015625 201.17578125 C-85.82370544 201.02465378 -84.63178589 200.87352631 -83.40374756 200.71781921 C-80.93074866 200.40520643 -78.45762453 200.09358269 -75.984375 199.78295898 C-72.21285624 199.3078206 -68.4423932 198.82480318 -64.671875 198.34179688 C-62.24485257 198.03597461 -59.8177713 197.73061885 -57.390625 197.42578125 C-56.27802307 197.28207596 -55.16542114 197.13837067 -54.019104 196.99031067 C-52.9664032 196.85984848 -51.91370239 196.72938629 -50.82910156 196.5949707 C-49.46183929 196.42201225 -49.46183929 196.42201225 -48.06695557 196.24555969 C-44.05663803 195.92446853 -40.02315128 196 -36 196 C-36 180.16 -36 164.32 -36 148 C-32.13809464 146.71269821 -29.92301035 147.43614203 -25.9375 148.25 C-24.49771422 148.53546474 -23.05759559 148.81925464 -21.6171875 149.1015625 C-20.86405273 149.25012695 -20.11091797 149.39869141 -19.33496094 149.55175781 C-15.42093095 150.30313371 -11.49335181 150.96827273 -7.5625 151.625 C-6.84247803 151.7477832 -6.12245605 151.87056641 -5.38061523 151.99707031 C-0.85233808 152.75186981 3.66278405 153.31052537 8.23461914 153.73193359 C10 154 10 154 11 155 C11.12667278 158.00252885 11.18880402 160.98056553 11.203125 163.984375 C11.20882507 164.90978088 11.21452515 165.83518677 11.22039795 166.78863525 C11.22988072 168.76597953 11.23639483 170.74333984 11.24023438 172.72070312 C11.24973655 175.66827916 11.28063615 178.61509421 11.3125 181.5625 C11.55805071 225.22155369 11.55805071 225.22155369 -2.1875 239.29296875 C-2.785625 239.85628906 -3.38375 240.41960937 -4 241 C-4.556875 241.55300781 -5.11375 242.10601562 -5.6875 242.67578125 C-12.11382835 248.67071255 -18.95083901 250.98143547 -27.52392578 252.44458008 C-28.26331957 252.5725211 -29.00271336 252.70046213 -29.76451302 252.83228016 C-39.053087 254.39886449 -48.39494493 255.54733395 -57.7421875 256.69921875 C-59.68696392 256.94136584 -61.63171646 257.18370474 -63.57644653 257.42622375 C-67.61830803 257.92915349 -71.66056732 258.42872392 -75.703125 258.92602539 C-80.85802199 259.56059369 -86.01158988 260.20533568 -91.16488457 260.85277081 C-95.16737708 261.3541904 -99.17062282 261.84937683 -103.1741066 262.34281349 C-105.07438269 262.5779287 -106.97440251 262.81512589 -108.87414169 263.05454063 C-142.50204947 267.2826639 -142.50204947 267.2826639 -155.390625 258.30859375 C-163.2843966 251.89011442 -166.33311931 241.66501878 -168 232 C-168.53239191 225.95683635 -168.42145803 219.8782032 -168.40405273 213.81738281 C-168.40976579 212.0090798 -168.41673365 210.20078039 -168.42485046 208.39248657 C-168.44269671 203.51206062 -168.44162925 198.63181531 -168.43590808 193.75136662 C-168.43280284 189.66140937 -168.43892368 185.57148615 -168.44494683 181.48153377 C-168.45896338 171.82294646 -168.45745561 162.16444766 -168.44604492 152.50585938 C-168.4345754 142.57880662 -168.4486264 132.6520244 -168.4754414 122.7250073 C-168.49767775 114.16915285 -168.50421771 105.61338282 -168.49836498 97.05750155 C-168.49501206 91.96204824 -168.49729843 86.86676813 -168.51461601 81.77133942 C-168.5302094 76.97437924 -168.5259938 72.17781602 -168.50731087 67.38087082 C-168.50365854 65.63311966 -168.5066338 63.88533826 -168.51719666 62.1376152 C-168.60129505 47.05633389 -167.23781799 32.55036888 -158 20 C-157.57203125 19.36835938 -157.1440625 18.73671875 -156.703125 18.0859375 C-147.97644471 6.43325264 -132.82861315 3.3100232 -119.21640015 1.22839355 C-113.93856187 0.47855304 -108.64811498 -0.16175011 -103.35546875 -0.796875 C-101.40920267 -1.03710258 -99.4630219 -1.27802217 -97.516922 -1.51959229 C-93.46945937 -2.01983078 -89.42124905 -2.51328707 -85.37231445 -3.00146484 C-80.20905847 -3.62433479 -75.04777134 -4.26206614 -69.8869276 -4.90458298 C-65.88018986 -5.40214431 -61.87265229 -5.89299464 -57.86483192 -6.38175201 C-55.96180818 -6.61440299 -54.05899897 -6.84881648 -52.15642357 -7.0851059 C-15.24888399 -11.65135428 -15.24888399 -11.65135428 0 0 Z " fill="#FFA800" transform="translate(189,125)"/>
<path d="M0 0 C1.15113281 0.25523438 2.30226563 0.51046875 3.48828125 0.7734375 C9.55248819 2.38759759 13.29144043 4.17705941 16.6875 9.625 C19.9698754 16.63452301 20.14104012 23.52427027 20.12109375 31.1484375 C20.1263356 32.33039703 20.13157745 33.51235657 20.13697815 34.73013306 C20.14337471 37.21949481 20.1420922 39.70888689 20.13354492 42.19824219 C20.12504119 45.98167429 20.15382278 49.76359188 20.18554688 53.546875 C20.18715941 55.97656205 20.18658035 58.40625175 20.18359375 60.8359375 C20.19482773 61.95398773 20.20606171 63.07203796 20.21763611 64.22396851 C20.12539384 74.75760978 17.39628181 83.58625756 10.62890625 91.7421875 C7.40864318 94.86525953 3.32248633 97.625 -1.3125 97.625 C-1.3125 98.285 -1.3125 98.945 -1.3125 99.625 C-1.95058594 99.75777344 -2.58867188 99.89054687 -3.24609375 100.02734375 C-4.48552734 100.29224609 -4.48552734 100.29224609 -5.75 100.5625 C-6.57371094 100.73652344 -7.39742187 100.91054687 -8.24609375 101.08984375 C-10.28911204 101.43252994 -10.28911204 101.43252994 -11.3125 102.625 C-12.99134238 103.0181648 -14.68100045 103.36585452 -16.375 103.6875 C-17.75365234 103.95240234 -17.75365234 103.95240234 -19.16015625 104.22265625 C-19.87042969 104.35542969 -20.58070312 104.48820312 -21.3125 104.625 C-15.91563334 109.40481149 -15.91563334 109.40481149 -10.3125 113.9375 C-9.6525 114.494375 -8.9925 115.05125 -8.3125 115.625 C-8.3125 116.285 -8.3125 116.945 -8.3125 117.625 C-7.6525 117.625 -6.9925 117.625 -6.3125 117.625 C-6.3125 118.285 -6.3125 118.945 -6.3125 119.625 C-5.72082031 119.88667969 -5.12914062 120.14835937 -4.51953125 120.41796875 C-2.19550622 121.68898421 -0.79552188 123.00484996 1 124.9375 C3.82498714 127.85927471 6.71763663 130.16307752 10.06640625 132.4453125 C12.53548462 134.24208761 14.55972423 136.44266587 16.6875 138.625 C17.6775 139.45 18.6675 140.275 19.6875 141.125 C23.86346819 144.60497349 27.48236655 148.36956615 31 152.5 C35.47423406 157.66482237 40.61369201 161.91953881 45.875 166.25 C48.6402638 168.58511166 51.16185731 171.03459724 53.6875 173.625 C55.0796875 174.9553125 55.0796875 174.9553125 56.5 176.3125 C58.6875 178.625 58.6875 178.625 58.6875 180.625 C57.93726563 180.74617187 57.18703125 180.86734375 56.4140625 180.9921875 C55.39054687 181.15976563 54.36703125 181.32734375 53.3125 181.5 C52.31476563 181.66242188 51.31703125 181.82484375 50.2890625 181.9921875 C47.52098863 182.47855189 44.78484602 183.01872716 42.03515625 183.59375 C36.22376435 184.76676182 30.38210098 185.52808905 24.5 186.25 C22.93862305 186.45109375 22.93862305 186.45109375 21.34570312 186.65625 C6.80849642 188.46532461 6.80849642 188.46532461 3.09765625 185.68359375 C2.32292969 184.81863281 1.54820312 183.95367187 0.75 183.0625 C-2.23284933 179.85367724 -5.15881993 176.77361797 -8.5 173.9375 C-11.67256757 171.22269769 -14.60675835 168.35266422 -17.53125 165.375 C-19.39639674 163.54257513 -21.33177746 161.83146865 -23.3125 160.125 C-26.53925563 157.34502592 -29.54063145 154.42009902 -32.5234375 151.3828125 C-35.06788379 148.88281069 -37.7671954 146.57749319 -40.46875 144.25 C-42.85626892 142.14574604 -45.06265896 139.87484104 -47.3125 137.625 C-48.41015656 136.72120164 -49.5144571 135.82541658 -50.625 134.9375 C-51.511875 134.174375 -52.39875 133.41125 -53.3125 132.625 C-53.3125 131.965 -53.3125 131.305 -53.3125 130.625 C-53.869375 130.3775 -54.42625 130.13 -55 129.875 C-59.819771 127.26971838 -63.51252501 123.51545058 -67.3125 119.625 C-69.6225 117.315 -71.9325 115.005 -74.3125 112.625 C-85.2025 113.615 -85.2025 113.615 -96.3125 114.625 C-96.6425 133.765 -96.9725 152.905 -97.3125 172.625 C-131.14142126 177.69933819 -131.14142126 177.69933819 -139.3125 177.625 C-139.335827 156.38971249 -139.35347819 135.15442708 -139.36431217 113.91912937 C-139.36947555 104.05993281 -139.37651905 94.2007442 -139.38793945 84.34155273 C-139.39788501 75.75152183 -139.40435312 67.16149669 -139.40658849 58.57146019 C-139.40789582 54.02018805 -139.41098305 49.46893236 -139.41823006 44.91766548 C-139.42498825 40.63895181 -139.42711737 36.36026147 -139.42560768 32.08154297 C-139.4258841 30.50649323 -139.42789041 28.93144277 -139.43170547 27.35639763 C-139.4366396 25.21535748 -139.43549935 23.07440685 -139.43275452 20.93336487 C-139.43367631 19.73226861 -139.4345981 18.53117235 -139.43554783 17.29367924 C-139.3125 14.625 -139.3125 14.625 -138.3125 13.625 C-136.77143831 13.34757675 -135.21967364 13.12932263 -133.66590881 12.93528748 C-132.66087311 12.8077005 -131.6558374 12.68011353 -130.62034607 12.54866028 C-129.50821243 12.41199448 -128.3960788 12.27532867 -127.25024414 12.13452148 C-125.50384644 11.91484711 -125.50384644 11.91484711 -123.72216797 11.69073486 C-120.51751593 11.28871692 -117.31240502 10.89064489 -114.10700154 10.49466968 C-111.42849436 10.16331179 -108.75031405 9.82935327 -106.07212728 9.49541718 C-99.74510717 8.70659348 -93.41753232 7.92233553 -87.08959961 7.14086914 C-80.57756795 6.3365873 -74.06651343 5.52472788 -67.55590159 4.70903915 C-61.95971669 4.00819105 -56.36295024 3.31212997 -50.76570219 2.61982399 C-47.4261037 2.20671174 -44.086748 1.79184672 -40.74794197 1.37237358 C-37.01242913 0.90440814 -33.2760281 0.44428473 -29.53930664 -0.01391602 C-28.44539108 -0.15260605 -27.35147552 -0.29129608 -26.22441101 -0.43418884 C-17.27212387 -1.51817181 -8.85216383 -2.02507032 0 0 Z M-50.78515625 39.12109375 C-52.65245644 39.35059471 -52.65245644 39.35059471 -54.55747986 39.58473206 C-57.83038376 39.98877983 -61.10244529 40.39895248 -64.37426758 40.81164551 C-67.05638877 41.14793343 -69.73944181 41.47641919 -72.42253971 41.80480862 C-75.62724813 42.19786415 -78.83118422 42.59708659 -82.03515625 42.99609375 C-83.2371315 43.14404892 -84.43910675 43.29200409 -85.67750549 43.44444275 C-86.78303268 43.58451248 -87.88855988 43.72458221 -89.02758789 43.86889648 C-90.49005699 44.05209694 -90.49005699 44.05209694 -91.98207092 44.23899841 C-94.32803553 44.5098324 -94.32803553 44.5098324 -96.3125 45.625 C-96.3125 56.185 -96.3125 66.745 -96.3125 77.625 C-91.20944674 78.35400761 -88.22534352 78.72506278 -83.39648438 78.14355469 C-81.71939392 77.94774811 -81.71939392 77.94774811 -80.00842285 77.74798584 C-78.81970581 77.59911926 -77.63098877 77.45025269 -76.40625 77.296875 C-75.16758179 77.14720276 -73.92891357 76.99753052 -72.65270996 76.84332275 C-69.37317162 76.44369778 -66.09490362 76.03504388 -62.8168335 75.62359619 C-60.81493228 75.37530167 -58.81226358 75.13470253 -56.80908203 74.89697266 C-52.94418435 74.43726278 -49.08134139 73.96303787 -45.21875 73.484375 C-44.03003296 73.34360535 -42.84131592 73.20283569 -41.61657715 73.05780029 C-31.59912478 71.95578153 -31.59912478 71.95578153 -23.40234375 66.59375 C-21.75871061 62.11646975 -21.83920072 57.85701401 -21.875 53.125 C-21.85501953 52.18785156 -21.83503906 51.25070313 -21.81445312 50.28515625 C-21.81733013 46.22857978 -22.05669351 43.22759955 -23.65234375 39.46875 C-30.56549323 34.67725726 -42.89122273 38.12094993 -50.78515625 39.12109375 Z " fill="#FFA800" transform="translate(1344.3125,22.375)"/>
<path d="M0 0 C0.98050103 -0.01007867 1.96100206 -0.02015734 2.97121525 -0.03054142 C11.59330729 0.04133061 18.08599702 1.8674352 24.47094727 7.98999023 C31.19821954 16.31158715 31.22872463 26.58756421 31.13500977 36.78686523 C31.14661133 38.04563477 31.15821289 39.3044043 31.17016602 40.60131836 C31.1338931 52.19051633 29.17482624 61.253608 21.76000977 70.34936523 C19.07250977 72.66186523 19.07250977 72.66186523 16.76000977 74.34936523 C14.99677472 76.47539708 14.99677472 76.47539708 13.76000977 78.34936523 C14.93563477 78.84436523 16.11125977 79.33936523 17.32250977 79.84936523 C23.61345209 83.0171447 28.06564568 87.97071256 30.63500977 94.53686523 C32.82315932 101.95226096 32.97681838 108.77396491 33.01000977 116.47436523 C33.04094727 118.23393555 33.04094727 118.23393555 33.07250977 120.02905273 C33.12776815 132.46218996 30.71350716 143.75928006 22.09594727 153.16577148 C8.39957096 165.64260744 -13.0807546 166.23215082 -30.59936523 168.32983398 C-32.72201797 168.59016337 -34.8445955 168.85110658 -36.96710205 169.11262512 C-41.39036219 169.6555023 -45.81435309 170.19180562 -50.23901367 170.72314453 C-55.84856357 171.39718775 -61.45610891 172.08648398 -67.06319809 172.7806654 C-71.43998926 173.32097647 -75.81768824 173.85362337 -80.19568634 174.384058 C-82.2607475 174.63503103 -84.32555371 174.88811297 -86.39006805 175.14354515 C-100.00469741 176.82194221 -113.52911529 177.88627342 -127.23999023 178.34936523 C-127.26331723 157.11407772 -127.28096843 135.87879232 -127.29180241 114.64349461 C-127.29696579 104.78429805 -127.30400928 94.92510943 -127.31542969 85.06591797 C-127.32537524 76.47588707 -127.33184335 67.88586192 -127.33407873 59.29582542 C-127.33538606 54.74455328 -127.33847329 50.1932976 -127.34572029 45.64203072 C-127.35247848 41.36331704 -127.35460761 37.0846267 -127.35309792 32.8059082 C-127.35337433 31.23085847 -127.35538065 29.655808 -127.35919571 28.08076286 C-127.36412983 25.93972272 -127.36298959 23.79877208 -127.36024475 21.6577301 C-127.36116654 20.45663384 -127.36208834 19.25553759 -127.36303806 18.01804447 C-127.23999023 15.34936523 -127.23999023 15.34936523 -126.23999023 14.34936523 C-124.83178197 14.08509693 -123.41256555 13.8791185 -121.99131775 13.69761658 C-121.07382751 13.57844376 -120.15633728 13.45927094 -119.21104431 13.33648682 C-118.19571121 13.20917175 -117.18037811 13.08185669 -116.13427734 12.95068359 C-115.07052887 12.81398758 -114.0067804 12.67729156 -112.91079712 12.53645325 C-109.3635967 12.08233639 -105.81556893 11.63516684 -102.26733398 11.18920898 C-101.05152712 11.03567019 -99.83572025 10.88213139 -98.58307076 10.7239399 C-92.79137946 9.99275304 -86.99928867 9.26489157 -81.20652002 8.54228777 C-73.92231305 7.63356259 -66.64046246 6.70766985 -59.35944271 5.77367306 C-54.23243204 5.11934803 -49.10379894 4.47848 -43.97467232 3.84097481 C-41.54051413 3.53614791 -39.1069549 3.22649142 -36.67408562 2.91154289 C-24.44539093 1.33313842 -12.34103097 0.07765232 0 0 Z M-37.48217773 37.84545898 C-38.72750275 37.99845963 -39.97282776 38.15146027 -41.25588989 38.30909729 C-44.53982543 38.71404104 -47.82308401 39.12401231 -51.10614014 39.53601074 C-53.79166153 39.87136434 -56.47795092 40.20031554 -59.16427422 40.52917385 C-62.37482641 40.92290479 -65.58473656 41.32178182 -68.79467773 41.72045898 C-70.59930984 41.94239174 -70.59930984 41.94239174 -72.44039917 42.16880798 C-73.55230621 42.30887772 -74.66421326 42.44894745 -75.80981445 42.59326172 C-76.78860565 42.71539536 -77.76739685 42.83752899 -78.77584839 42.96336365 C-81.36632036 43.29947557 -81.36632036 43.29947557 -84.23999023 44.34936523 C-84.23999023 53.91936523 -84.23999023 63.48936523 -84.23999023 73.34936523 C-78.14253254 72.68735554 -72.04783996 72.02364193 -65.95483398 71.32592773 C-60.39939535 70.69069477 -54.84074234 70.10007857 -49.27775574 69.5348053 C-45.56227697 69.15175722 -41.84951985 68.74557293 -38.13693237 68.33554077 C-36.29331073 68.13689136 -34.44864087 67.94773423 -32.60305786 67.76821899 C-29.98127862 67.51161128 -27.36519229 67.22127594 -24.74780273 66.92358398 C-23.56964745 66.82024246 -23.56964745 66.82024246 -22.36769104 66.71481323 C-18.37365808 66.22487589 -15.97779829 65.58208907 -13.24316406 62.52490234 C-11.39078268 59.58840939 -10.61638911 58.33525818 -10.68139648 54.96655273 C-10.68848633 54.19182617 -10.69557617 53.41709961 -10.70288086 52.61889648 C-10.73575195 51.82870117 -10.76862305 51.03850586 -10.80249023 50.22436523 C-10.80829102 49.42643555 -10.8140918 48.62850586 -10.82006836 47.80639648 C-10.89333561 42.26507421 -10.89333561 42.26507421 -13.23999023 37.34936523 C-19.80520329 34.06675871 -30.49602329 36.96566916 -37.48217773 37.84545898 Z M-28.73217773 100.37280273 C-30.41379588 100.59083103 -32.09543741 100.80867897 -33.77709961 101.02636719 C-34.65003662 101.14066071 -35.52297363 101.25495422 -36.42236328 101.37271118 C-52.35000624 103.45284345 -68.21446214 105.18962307 -84.23999023 106.34936523 C-84.23999023 117.23936523 -84.23999023 128.12936523 -84.23999023 139.34936523 C-75.5861947 138.73123698 -67.03452066 138.07424481 -58.43530273 137.04467773 C-57.38647919 136.92003143 -56.33765564 136.79538513 -55.25704956 136.66696167 C-53.06721477 136.40496347 -50.87760878 136.14104598 -48.68823242 135.87524414 C-45.35238952 135.47284522 -42.01505198 135.0848712 -38.67749023 134.69702148 C-36.53415426 134.43879185 -34.39092108 134.17970736 -32.24780273 133.91967773 C-31.26119659 133.80705597 -30.27459045 133.6944342 -29.25808716 133.57839966 C-19.50742287 132.428484 -19.50742287 132.428484 -11.26708984 127.49414062 C-9.20717099 123.19264619 -9.770902 118.46479558 -9.80249023 113.78686523 C-9.78250977 112.73305664 -9.7625293 111.67924805 -9.74194336 110.59350586 C-9.74258789 109.58352539 -9.74323242 108.57354492 -9.74389648 107.53295898 C-9.74204346 106.6105542 -9.74019043 105.68814941 -9.73828125 104.73779297 C-10.05097651 102.24869169 -10.05097651 102.24869169 -11.89599609 100.52539062 C-17.09071228 97.91910504 -23.16773963 99.62617574 -28.73217773 100.37280273 Z " fill="#FFA800" transform="translate(951.239990234375,67.650634765625)"/>
<path d="M0 0 C0.37697021 0.70382813 0.75394043 1.40765625 1.14233398 2.1328125 C9.23998429 17.2408658 17.39688686 32.29878224 25.96875 47.14453125 C31.00438103 55.88036869 35.89504528 64.5939803 40.3203125 73.65625 C43.21068603 79.41010986 46.43374849 84.97368048 49.61914062 90.56787109 C58.44028779 106.10469359 67.11600823 121.72380838 75.60546875 137.44433594 C76.614729 139.29393962 77.64028702 141.13468113 78.67578125 142.96972656 C79.22621094 143.95166992 79.77664063 144.93361328 80.34375 145.9453125 C80.85099609 146.84008301 81.35824219 147.73485352 81.88085938 148.65673828 C83 151 83 151 83 154 C66.83 155.98 50.66 157.96 34 160 C32.35 157.03 30.7 154.06 29 151 C27.29475018 148.0173744 25.58428982 145.03801041 23.86328125 142.06445312 C18 131.8669424 18 131.8669424 18 129 C17.04673828 129.13051758 16.09347656 129.26103516 15.11132812 129.39550781 C-1.48626172 131.66513282 -18.08578173 133.92705023 -34.70288086 136.04992676 C-36.70409021 136.30661139 -38.70459514 136.56876914 -40.70507812 136.83105469 C-47.19643862 137.65142894 -53.45709313 138.19118884 -60 138 C-60.36996094 139.20785156 -60.73992187 140.41570312 -61.12109375 141.66015625 C-63.29290569 148.14005103 -66.12949922 154.272353 -69.0625 160.4375 C-69.84657227 162.21157227 -69.84657227 162.21157227 -70.64648438 164.02148438 C-74.56709734 172.18514451 -74.56709734 172.18514451 -78.02636719 174.15234375 C-80.7115004 174.74263495 -83.25131403 174.87892104 -86 175 C-88.10943083 175.23566496 -90.21280812 175.50810022 -92.31806946 175.77836609 C-96.24842484 176.27408122 -100.18722449 176.69303796 -104.125 177.125 C-105.76566932 177.30819727 -107.40629477 177.49178789 -109.046875 177.67578125 C-113.03075877 178.12172343 -117.01519815 178.56234071 -121 179 C-121.33 178.34 -121.66 177.68 -122 177 C-121.00292969 174.56762695 -121.00292969 174.56762695 -119.421875 171.48828125 C-118.8438916 170.35044189 -118.2659082 169.21260254 -117.67041016 168.0402832 C-117.35775208 167.43350739 -117.04509399 166.82673157 -116.72296143 166.2015686 C-115.07238166 162.99685942 -113.4484137 159.77866959 -111.8203125 156.5625 C-111.49094696 155.91368362 -111.16158142 155.26486725 -110.82223511 154.59638977 C-108.00634301 149.04091548 -105.29265598 143.44067866 -102.625 137.8125 C-98.2000312 128.5045219 -93.74167078 119.21344854 -89.25 109.9375 C-88.74205399 108.88838943 -88.74205399 108.88838943 -88.22384644 107.81808472 C-83.28772087 97.63175244 -78.26878752 87.48961681 -73.1875 77.375 C-69.37212264 69.78018175 -65.56589523 62.18338996 -61.91162109 54.50927734 C-61.0579568 52.71998402 -60.19506646 50.93506158 -59.32275391 49.15478516 C-56.784566 43.93612394 -54.4360986 38.67808532 -52.23805237 33.30926514 C-41.69653595 7.73097906 -41.69653595 7.73097906 -35.53808594 3.18115234 C-30.52499475 1.16131463 -25.74445253 1.27809392 -20.43798828 1.82519531 C-16.50103741 2.10747619 -12.75487166 1.42810571 -8.875 0.8125 C-2.30894309 0 -2.30894309 0 0 0 Z M-21 58 C-26.983791 70.50141992 -32.96147638 83.00567001 -38.91357422 95.5222168 C-39.50162842 96.75838745 -39.50162842 96.75838745 -40.1015625 98.01953125 C-40.44525879 98.74245361 -40.78895508 99.46537598 -41.14306641 100.21020508 C-41.75056548 101.47903007 -42.37087807 102.74175615 -43 104 C-36.91147887 103.33564584 -30.82436466 102.65996052 -24.73828125 101.97363281 C-22.66669043 101.74165103 -20.59474687 101.51279742 -18.52246094 101.28710938 C-15.54784948 100.96260631 -12.57467834 100.62696019 -9.6015625 100.2890625 C-8.67131256 100.19001617 -7.74106262 100.09096985 -6.78262329 99.98892212 C-5.92188202 99.88896942 -5.06114075 99.78901672 -4.17431641 99.68603516 C-3.41486725 99.60165192 -2.65541809 99.51726868 -1.87295532 99.43032837 C0.23295284 99.12092198 0.23295284 99.12092198 2 97 C1.21689453 95.63294922 1.21689453 95.63294922 0.41796875 94.23828125 C-0.32642078 92.93019923 -1.06982394 91.62155563 -1.8125 90.3125 C-2.20904785 89.61366699 -2.6055957 88.91483398 -3.01416016 88.19482422 C-5.40387764 83.94654022 -7.70965226 79.66555553 -9.94140625 75.33203125 C-10.42955811 74.38481201 -10.91770996 73.43759277 -11.4206543 72.46166992 C-12.38075755 70.58900923 -13.33419385 68.71291355 -14.28051758 66.83325195 C-14.72161865 65.97304443 -15.16271973 65.11283691 -15.6171875 64.2265625 C-16.00503418 63.45908691 -16.39288086 62.69161133 -16.79248047 61.90087891 C-18.00992287 59.70096142 -18.00992287 59.70096142 -21 58 Z " fill="#FFA800" transform="translate(1110,48)"/>
<path d="M0 0 C0.33 19.14 0.66 38.28 1 58 C4.3 55.69 7.6 53.38 11 51 C29.30944968 43.11285245 56.68359581 40.18959225 76 45 C81.15118298 47.37402346 84.35015232 50.99473217 87 56 C88.82254153 62.00803143 89.27936173 67.37565966 89.22705078 73.62890625 C89.22734283 74.55666367 89.22763489 75.48442108 89.22793579 76.44029236 C89.22655183 79.48112619 89.21103481 82.52170942 89.1953125 85.5625 C89.19157905 87.68098822 89.18873365 89.79947818 89.18673706 91.91796875 C89.17912677 97.47459744 89.15950072 103.0311204 89.1373291 108.58770752 C89.11681447 114.26548838 89.10772335 119.94328645 89.09765625 125.62109375 C89.07625229 136.74744959 89.04109145 147.87369943 89 159 C75.8 160.65 62.6 162.3 49 164 C49 136.28 49 108.56 49 80 C33.16 81.98 17.32 83.96 1 86 C0.67 113.72 0.34 141.44 0 170 C-19.8 172.475 -19.8 172.475 -40 175 C-40 118.57 -40 62.14 -40 4 C-7 0 -7 0 0 0 Z " fill="#FFA800" transform="translate(706,91)"/>
<path d="M0 0 C0.886875 0.226875 1.77375 0.45375 2.6875 0.6875 C6.05869521 2.60088106 7.6299495 5.48085067 9 9 C10.14609887 14.30407867 10.1347638 19.46449867 10.11352539 24.86083984 C10.11367142 25.83707306 10.11381744 26.81330627 10.1139679 27.81912231 C10.11327345 31.03308363 10.10550297 34.24698636 10.09765625 37.4609375 C10.09579041 39.69438648 10.09436729 41.92783587 10.09336853 44.1612854 C10.08955644 50.03026465 10.07973733 55.89921903 10.06866455 61.76818848 C10.0584223 67.76082015 10.05386488 73.75345585 10.04882812 79.74609375 C10.03811388 91.49740674 10.02105317 103.2487013 10 115 C5.91093723 115.55354293 1.82157307 116.10479077 -2.26806641 116.65405273 C-3.65486698 116.84062 -5.04158814 117.0277787 -6.42822266 117.21557617 C-14.27482455 118.27784177 -22.11418478 119.27266753 -30 120 C-30.33 116.7 -30.66 113.4 -31 110 C-31.639375 110.70125 -32.27875 111.4025 -32.9375 112.125 C-41.15779301 120.29885067 -50.82400844 124.05677648 -62.14453125 125.38671875 C-63.42018196 125.54682182 -63.42018196 125.54682182 -64.72160339 125.7101593 C-66.51019011 125.93236327 -68.29938022 126.14975873 -70.08911133 126.36254883 C-72.79613889 126.68554781 -75.50052245 127.02612261 -78.20507812 127.36914062 C-105.20651184 130.72018433 -105.20651184 130.72018433 -116 126 C-121.11359797 121.6835789 -122.22869716 117.50655629 -123 111 C-123.18277903 106.73464396 -123.18582253 102.47292319 -123.18530273 98.20385742 C-123.1874832 96.20292053 -123.20598312 94.20202326 -123.22460938 92.20117188 C-123.25269055 73.47102738 -123.25269055 73.47102738 -118.6875 67.5 C-116.12268575 65.11412628 -114.33702498 63.95343571 -111 63 C-111 62.34 -111 61.68 -111 61 C-105.29668391 58.5327707 -100.18444458 56.65791964 -94 56 C-93.67 55.67 -93.34 55.34 -93 55 C-91.25730114 54.70020569 -89.50432084 54.45991496 -87.74926758 54.24389648 C-86.6275264 54.10382675 -85.50578522 53.96375702 -84.35005188 53.81944275 C-83.12723007 53.67148758 -81.90440826 53.52353241 -80.64453125 53.37109375 C-79.39500168 53.21713638 -78.14547211 53.06317902 -76.858078 52.90455627 C-74.20599187 52.57887962 -71.55376056 52.25493793 -68.90112305 51.93383789 C-65.51226698 51.52341719 -62.12432216 51.10597409 -58.73660755 50.68624783 C-55.49802661 50.2858895 -52.2587549 49.891213 -49.01953125 49.49609375 C-47.8068306 49.34611435 -46.59412994 49.19613495 -45.34468079 49.04161072 C-44.2071788 48.90469315 -43.06967682 48.76777557 -41.89770508 48.62670898 C-40.90144608 48.50537094 -39.90518707 48.3840329 -38.8787384 48.25901794 C-35.92981259 47.9936848 -32.96083858 48 -30 48 C-30 41.73 -30 35.46 -30 29 C-31.46953125 29.28617188 -32.9390625 29.57234375 -34.453125 29.8671875 C-41.45004747 31.13792902 -48.4866283 32.01443802 -55.54443359 32.85986328 C-57.7608043 33.12629881 -59.9760865 33.40075919 -62.19140625 33.67578125 C-63.62233743 33.84944028 -65.05332519 34.02263384 -66.484375 34.1953125 C-67.76022461 34.35016113 -69.03607422 34.50500977 -70.35058594 34.66455078 C-73.92407801 34.99302135 -77.4137964 35.05951965 -81 35 C-80.505 39.95 -80.505 39.95 -80 45 C-102.33628965 44.08233775 -102.33628965 44.08233775 -112.3125 43.5 C-113.56675781 43.4278125 -114.82101562 43.355625 -116.11328125 43.28125 C-119 43 -119 43 -121 42 C-121.44269969 33.37555418 -120.90303481 25.66559166 -116.25 18.1875 C-105.92604271 8.15031931 -93.44129227 7.15887189 -79.75390625 5.51953125 C-77.97460691 5.30025465 -76.1953875 5.08032859 -74.41624451 4.85978699 C-70.69932742 4.4010756 -66.98170988 3.94872918 -63.26342773 3.5012207 C-58.52036869 2.93007285 -53.77910908 2.3453375 -49.03827 1.75607777 C-45.36777428 1.30100239 -41.69655001 0.85204888 -38.02506828 0.4050045 C-36.27754112 0.19171275 -34.53020732 -0.02317005 -32.78308296 -0.23973656 C-8.99996694 -3.17645892 -8.99996694 -3.17645892 0 0 Z M-39.97387695 75.55078125 C-40.93449539 75.67090576 -41.89511383 75.79103027 -42.88484192 75.91479492 C-44.42104439 76.11165894 -44.42104439 76.11165894 -45.98828125 76.3125 C-47.04661667 76.44567627 -48.10495209 76.57885254 -49.19535828 76.71606445 C-52.56811153 77.1411508 -55.94030385 77.57051879 -59.3125 78 C-61.60217785 78.28934511 -63.89189101 78.5784109 -66.18164062 78.8671875 C-71.78817504 79.57488709 -77.39421028 80.28642659 -83 81 C-83 86.94 -83 92.88 -83 99 C-71.45765263 98.31501758 -60.08262255 96.95079077 -48.625 95.4375 C-46.80994391 95.20080293 -44.99483998 94.96447238 -43.1796875 94.72851562 C-38.78579327 94.15722919 -34.39297741 93.57847273 -30 93 C-30 87.06 -30 81.12 -30 75 C-33.49141046 75 -36.5535948 75.11760567 -39.97387695 75.55078125 Z " fill="#FFA800" transform="translate(484,172)"/>
<path d="M0 0 C4.46467582 3.59654441 6.41312416 8.21951788 7.25 13.8125 C7.31533435 15.74901019 7.33584303 17.68752861 7.3125 19.625 C7.30347656 20.60082031 7.29445313 21.57664063 7.28515625 22.58203125 C7.27355469 23.31808594 7.26195312 24.05414063 7.25 24.8125 C3.38481228 26.93835325 -0.23781364 28.23569838 -4.51611328 29.26367188 C-9.14396528 30.40065672 -13.71810647 31.74638565 -18.30273438 33.04492188 C-22.10086934 34.11123457 -25.86164156 35.11898517 -29.75 35.8125 C-29.75 32.8425 -29.75 29.8725 -29.75 26.8125 C-54.005 29.7825 -54.005 29.7825 -78.75 32.8125 C-78.75 38.0925 -78.75 43.3725 -78.75 48.8125 C-77.10708984 48.60044922 -75.46417969 48.38839844 -73.77148438 48.16992188 C-68.27648356 47.46311122 -62.7803375 46.76573469 -57.28336334 46.07444 C-53.95821263 45.65593543 -50.63380137 45.23285008 -47.31005859 44.80322266 C-8.14278463 39.74700325 -8.14278463 39.74700325 1.74609375 44.64453125 C3.25 45.8125 3.25 45.8125 4.25 48.8125 C4.91 48.8125 5.57 48.8125 6.25 48.8125 C9.77333852 56.56384475 9.41230877 64.58531098 9.375 72.9375 C9.37016602 74.05318359 9.36533203 75.16886719 9.36035156 76.31835938 C9.16641016 102.89608984 9.16641016 102.89608984 1.9375 110.125 C-3.93466699 113.81217462 -8.31402937 116.26732745 -15.23632812 117.43481445 C-15.92956429 117.55396619 -16.62280045 117.67311792 -17.33704376 117.79588032 C-24.52121457 119.00352185 -31.73971641 119.9609326 -38.96875 120.85546875 C-40.36488668 121.0303953 -41.7610044 121.2054732 -43.15710449 121.38069153 C-46.05401746 121.74292128 -48.95139266 122.10114282 -51.84912109 122.45678711 C-55.51409563 122.90723943 -59.17721351 123.37124559 -62.84004974 123.83872509 C-65.71358183 124.20328808 -68.58819037 124.55874833 -71.46315002 124.91185951 C-73.45530106 125.15856339 -75.44636822 125.41397188 -77.43737793 125.66972351 C-103.63264722 128.82707204 -103.63264722 128.82707204 -111.26953125 124.08984375 C-114.61678887 121.20184048 -116.37342643 117.94222071 -117.75 113.8125 C-117.82973476 112.47724283 -117.85771338 111.13837917 -117.84765625 109.80078125 C-117.84443359 109.04345703 -117.84121094 108.28613281 -117.83789062 107.50585938 C-117.82951172 106.72017578 -117.82113281 105.93449219 -117.8125 105.125 C-117.80798828 104.32771484 -117.80347656 103.53042969 -117.79882812 102.70898438 C-117.7870585 100.74345743 -117.76912348 98.77796915 -117.75 96.8125 C-117.03980713 96.61615967 -116.32961426 96.41981934 -115.59790039 96.2175293 C-112.33542545 95.31410329 -109.07396166 94.40707691 -105.8125 93.5 C-104.13704102 93.0369043 -104.13704102 93.0369043 -102.42773438 92.56445312 C-96.71080447 90.97176004 -91.05184551 89.31563519 -85.45483398 87.33911133 C-83.75 86.8125 -83.75 86.8125 -81.75 86.8125 C-81.255 91.7625 -81.255 91.7625 -80.75 96.8125 C-79.45304199 96.63859741 -79.45304199 96.63859741 -78.12988281 96.46118164 C-61.65864335 94.27267233 -45.37688836 92.33209026 -28.75 91.8125 C-28.75 85.5425 -28.75 79.2725 -28.75 72.8125 C-30.87296509 73.26085205 -30.87296509 73.26085205 -33.03881836 73.71826172 C-38.70913287 74.85032065 -44.39128257 75.62090136 -50.12890625 76.3203125 C-51.18101791 76.45065887 -52.23312958 76.58100525 -53.31712341 76.71530151 C-55.52620154 76.98774694 -57.73552148 77.25823818 -59.94506836 77.52685547 C-63.30735671 77.9368728 -66.66831577 78.35676102 -70.02929688 78.77734375 C-72.18742655 79.04226569 -74.34562745 79.30660822 -76.50390625 79.5703125 C-77.49789932 79.69528107 -78.4918924 79.82024963 -79.51600647 79.94900513 C-90.46133639 81.26131228 -101.02212173 82.00296799 -110.75 75.8125 C-115.87476343 69.57967961 -115.90612568 63.41655229 -115.91796875 55.6328125 C-115.92129715 54.86121796 -115.92462555 54.08962341 -115.92805481 53.29464722 C-115.93309572 51.66925651 -115.93546402 50.04385555 -115.93530273 48.41845703 C-115.93748718 45.95197232 -115.9556673 43.4859369 -115.97460938 41.01953125 C-115.97754444 39.43229318 -115.97952848 37.84505301 -115.98046875 36.2578125 C-115.98765427 35.53046906 -115.99483978 34.80312561 -116.00224304 34.05374146 C-115.97043744 26.80924852 -115.0798864 20.1423864 -109.75 14.8125 C-100.25974487 6.87167428 -89.18029958 5.10744102 -77.17578125 3.70703125 C-75.79805209 3.5369139 -74.42046513 3.3656414 -73.04301453 3.19328308 C-69.44886321 2.74663386 -65.85303224 2.31540428 -62.2565918 1.88763428 C-58.60675634 1.4507465 -54.95874106 0.99917976 -51.31054688 0.54882812 C-44.81661193 -0.2509317 -38.32111153 -1.03696773 -31.82461548 -1.81568909 C-29.22590007 -2.12994977 -26.62870033 -2.45343886 -24.03198242 -2.78369141 C-15.50071077 -3.83336211 -7.96777548 -3.44063032 0 0 Z " fill="#FFA800" transform="translate(633.75,155.1875)"/>
<path d="M0 0 C4.39056038 5.29449928 6.26654305 9.48178413 6.22265625 16.328125 C6.21782227 17.66230469 6.21782227 17.66230469 6.21289062 19.0234375 C6.20032227 20.40402344 6.20032227 20.40402344 6.1875 21.8125 C6.18298828 22.74835938 6.17847656 23.68421875 6.17382812 24.6484375 C6.16206918 26.95319041 6.14563426 29.25781227 6.125 31.5625 C5.40054688 31.75585938 4.67609375 31.94921875 3.9296875 32.1484375 C2.47949219 32.53902344 2.47949219 32.53902344 1 32.9375 C-0.42699219 33.32035156 -0.42699219 33.32035156 -1.8828125 33.7109375 C-4.91544309 34.57400991 -7.88503078 35.56215227 -10.875 36.5625 C-13.70151651 37.43996062 -16.53725959 38.28464981 -19.375 39.125 C-20.10847656 39.34607422 -20.84195313 39.56714844 -21.59765625 39.79492188 C-22.31824219 40.00826172 -23.03882813 40.22160156 -23.78125 40.44140625 C-24.74514648 40.72866577 -24.74514648 40.72866577 -25.72851562 41.02172852 C-28.40841325 41.69688471 -31.14896567 42.10816094 -33.875 42.5625 C-33.875 38.2725 -33.875 33.9825 -33.875 29.5625 C-34.8129541 29.68367188 -35.7509082 29.80484375 -36.71728516 29.9296875 C-40.21691188 30.37996732 -43.71693822 30.82685184 -47.21728516 31.27148438 C-48.72852526 31.46414729 -50.23959663 31.65813888 -51.75048828 31.85351562 C-53.92957616 32.13505895 -56.10923793 32.41172568 -58.2890625 32.6875 C-60.25286865 32.93886719 -60.25286865 32.93886719 -62.25634766 33.1953125 C-65.50089735 33.52453951 -68.61873081 33.58944063 -71.875 33.5625 C-71.87277939 34.61263779 -71.87055878 35.66277557 -71.86827087 36.74473572 C-71.84803985 46.61895581 -71.83302805 56.49317172 -71.82318783 66.3674078 C-71.8179589 71.44441018 -71.81086108 76.52139589 -71.79956055 81.59838867 C-71.78873201 86.49370552 -71.78272324 91.38900629 -71.78012276 96.28433418 C-71.77826845 98.15632951 -71.77464772 100.02832391 -71.76926994 101.90031242 C-71.76205996 104.51290699 -71.76100904 107.12543427 -71.76147461 109.73803711 C-71.75787933 110.51990387 -71.75428406 111.30177063 -71.75057983 112.10733032 C-71.76094784 117.44844784 -71.76094784 117.44844784 -72.875 118.5625 C-75.15152098 118.93473632 -77.43783893 119.24731591 -79.7265625 119.53515625 C-80.41881927 119.62252548 -81.11107605 119.70989471 -81.8243103 119.7999115 C-83.29520671 119.98437036 -84.76637867 120.16664273 -86.23779297 120.34692383 C-88.47057784 120.62138335 -90.702077 120.904889 -92.93359375 121.18945312 C-94.36451469 121.36773926 -95.79550246 121.54549007 -97.2265625 121.72265625 C-98.52416504 121.88386963 -99.82176758 122.04508301 -101.15869141 122.21118164 C-104.71684956 122.54754937 -108.30097808 122.5625 -111.875 122.5625 C-111.875 83.6225 -111.875 44.6825 -111.875 4.5625 C-78.875 0.5625 -78.875 0.5625 -71.875 0.5625 C-71.38 4.0275 -71.38 4.0275 -70.875 7.5625 C-70.40191406 7.10359375 -69.92882812 6.6446875 -69.44140625 6.171875 C-54.03059065 -8.12743928 -17.12132987 -14.51591011 0 0 Z " fill="#FFA800" transform="translate(342.875,195.4375)"/>
<path d="M0 0 C-0.83308658 7.59921943 -1.6696188 15.19805389 -2.50854492 22.79663086 C-2.79351843 25.3815044 -3.07770372 27.96646497 -3.36108398 30.55151367 C-3.76859547 34.26764732 -4.17894264 37.98345856 -4.58984375 41.69921875 C-4.77896584 43.43228523 -4.77896584 43.43228523 -4.97190857 45.20036316 C-5.09195755 46.28110611 -5.21200653 47.36184906 -5.33569336 48.4753418 C-5.4400621 49.42354294 -5.54443085 50.37174408 -5.65196228 51.34867859 C-5.9909064 53.93072571 -6.45815992 56.45353016 -7 59 C-9.01969556 59.34015925 -11.04082797 59.67179169 -13.0625 60 C-14.18785156 60.185625 -15.31320312 60.37125 -16.47265625 60.5625 C-20 61 -20 61 -27 61 C-28.32 54.07 -29.64 47.14 -31 40 C-31.99 47.26 -32.98 54.52 -34 62 C-45.25 64.25 -45.25 64.25 -49.625 64.625 C-50.88183594 64.73714844 -50.88183594 64.73714844 -52.1640625 64.8515625 C-52.76992187 64.90054688 -53.37578125 64.94953125 -54 65 C-56.55332319 45.68720176 -58.92619615 26.37121324 -61 7 C-55.72 6.34 -50.44 5.68 -45 5 C-44.34 12.59 -43.68 20.18 -43 28 C-41.32859395 26.32859395 -41.53439178 24.16494332 -41.24609375 21.87109375 C-41.11396484 20.83662109 -40.98183594 19.80214844 -40.84570312 18.73632812 C-40.71099609 17.64771484 -40.57628906 16.55910156 -40.4375 15.4375 C-40.29892578 14.34501953 -40.16035156 13.25253906 -40.01757812 12.12695312 C-39.67457966 9.41844799 -39.33680676 6.70928205 -39 4 C-30.585 3.01 -30.585 3.01 -22 2 C-21.34 9.59 -20.68 17.18 -20 25 C-19.67 25 -19.34 25 -19 25 C-17.515 13.12 -17.515 13.12 -16 1 C-10.31658909 0.28957364 -5.5930202 -0.09987536 0 0 Z " fill="#FFFFFF" transform="translate(290,340)"/>
<path d="M0 0 C0 19.14 0 38.28 0 58 C-7.92 58.99 -7.92 58.99 -16 60 C-16 52.08 -16 44.16 -16 36 C-17.32 36 -18.64 36 -20 36 C-20 44.25 -20 52.5 -20 61 C-27.92 61.495 -27.92 61.495 -36 62 C-36 42.86 -36 23.72 -36 4 C-25 2 -25 2 -20 2 C-20 8.6 -20 15.2 -20 22 C-18.68 22 -17.36 22 -16 22 C-16 15.07 -16 8.14 -16 1 C-8 0 -8 0 0 0 Z " fill="#FFFFFF" transform="translate(767,282)"/>
<path d="M0 0 C0 19.47 0 38.94 0 59 C-7.92 59.495 -7.92 59.495 -16 60 C-16 52.08 -16 44.16 -16 36 C-16.99 36.495 -16.99 36.495 -18 37 C-18.33 44.92 -18.66 52.84 -19 61 C-26.92 61.99 -26.92 61.99 -35 63 C-35 43.53 -35 24.06 -35 4 C-29.72 3.34 -24.44 2.68 -19 2 C-19 8.93 -19 15.86 -19 23 C-18.01 23 -17.02 23 -16 23 C-16 16.07 -16 9.14 -16 2 C-4.5 0 -4.5 0 0 0 Z " fill="#FFFFFF" transform="translate(327,335)"/>
<path d="M0 0 C0 19.47 0 38.94 0 59 C-7 60 -7 60 -15 60 C-15 52.08 -15 44.16 -15 36 C-16.485 36.495 -16.485 36.495 -18 37 C-18.33 44.92 -18.66 52.84 -19 61 C-26.92 61.99 -26.92 61.99 -35 63 C-35 43.53 -35 24.06 -35 4 C-29.72 3.34 -24.44 2.68 -19 2 C-19 8.93 -19 15.86 -19 23 C-17.68 23 -16.36 23 -15 23 C-15 16.07 -15 9.14 -15 2 C-4.5 0 -4.5 0 0 0 Z " fill="#FFFFFF" transform="translate(853,271)"/>
<path d="M0 0 C2.07755213 3.11632819 2.2557719 3.84671363 2.29052734 7.39208984 C2.30328705 8.27665863 2.31604675 9.16122742 2.32919312 10.07260132 C2.33141876 11.02575226 2.33364441 11.9789032 2.3359375 12.9609375 C2.3425943 13.94365631 2.3492511 14.92637512 2.35610962 15.93887329 C2.36623751 18.0184746 2.3709266 20.09810843 2.37060547 22.17773438 C2.37497391 25.35601543 2.41127942 28.53290264 2.44921875 31.7109375 C2.45508784 33.73176609 2.45905661 35.75260127 2.4609375 37.7734375 C2.47530853 38.72253998 2.48967957 39.67164246 2.50448608 40.64950562 C2.47474344 44.95566624 2.40705423 47.34283251 0.09716797 51.07202148 C-7.41273129 57.97605809 -23.28940781 58 -33 58 C-33 38.53 -33 19.06 -33 -1 C-6.06338028 -3.99295775 -6.06338028 -3.99295775 0 0 Z M-17 8 C-17 20.21 -17 32.42 -17 45 C-15.515 44.505 -15.515 44.505 -14 44 C-11.94735624 39.00274142 -12.8140549 32.77052879 -12.81469727 27.47290039 C-12.81250346 25.44070719 -12.79430414 23.40905094 -12.77539062 21.37695312 C-12.77345703 20.09626953 -12.77152344 18.81558594 -12.76953125 17.49609375 C-12.76336792 15.73543579 -12.76336792 15.73543579 -12.75708008 13.93920898 C-12.7768401 10.81010136 -12.7768401 10.81010136 -15 8 C-15.66 8 -16.32 8 -17 8 Z " fill="#FFFFFF" transform="translate(997,258)"/>
<path d="M0 0 C3.3144017 2.91265604 3.96715398 5.85460511 4.3984375 10.1875 C4.41132812 11.38375 4.42421875 12.58 4.4375 13.8125 C4.46585938 15.00875 4.49421875 16.205 4.5234375 17.4375 C3.98713584 21.36431894 2.76857033 22.98877444 0.0625 25.8125 C0.71444336 26.51463623 1.36638672 27.21677246 2.03808594 27.94018555 C4.38163286 31.26529766 4.53532388 32.76233597 4.453125 36.76953125 C4.44023438 37.88134766 4.42734375 38.99316406 4.4140625 40.13867188 C4.38054688 41.28916016 4.34703125 42.43964844 4.3125 43.625 C4.29445313 44.79482422 4.27640625 45.96464844 4.2578125 47.16992188 C4.21077232 50.05113282 4.13903197 52.93192156 4.0625 55.8125 C-3.3625 56.8025 -3.3625 56.8025 -10.9375 57.8125 C-11.4325 45.4375 -11.4325 45.4375 -11.9375 32.8125 C-12.5975 32.4825 -13.2575 32.1525 -13.9375 31.8125 C-13.9375 40.3925 -13.9375 48.9725 -13.9375 57.8125 C-24.9375 59.8125 -24.9375 59.8125 -29.9375 59.8125 C-29.9375 40.3425 -29.9375 20.8725 -29.9375 0.8125 C-4.87786697 -1.97190367 -4.87786697 -1.97190367 0 0 Z M-13.9375 9.8125 C-13.9375 13.7725 -13.9375 17.7325 -13.9375 21.8125 C-12.9475 21.4825 -11.9575 21.1525 -10.9375 20.8125 C-10.9375 17.5125 -10.9375 14.2125 -10.9375 10.8125 C-11.9275 10.4825 -12.9175 10.1525 -13.9375 9.8125 Z " fill="#FFFFFF" transform="translate(573.9375,307.1875)"/>
<path d="M0 0 C0 19.14 0 38.28 0 58 C-10 60 -10 60 -14 60 C-15.98 53.4 -17.96 46.8 -20 40 C-20.33 46.93 -20.66 53.86 -21 61 C-27.435 61.495 -27.435 61.495 -34 62 C-34 42.86 -34 23.72 -34 4 C-29.71 3.34 -25.42 2.68 -21 2 C-18.23108925 8.01521991 -16.12261208 13.63216377 -14 20 C-13.67 13.73 -13.34 7.46 -13 1 C-7 0 -7 0 0 0 Z " fill="#FFFFFF" transform="translate(1217,227)"/>
<path d="M0 0 C0.02312851 7.54498233 0.04091769 15.08996101 0.05181217 22.63497066 C0.05703989 26.13808885 0.0641355 29.64118285 0.07543945 33.14428711 C0.08834206 37.16780841 0.09322912 41.19130414 0.09765625 45.21484375 C0.10281754 46.47836166 0.10797882 47.74187958 0.11329651 49.04368591 C0.11337204 50.204814 0.11344757 51.36594208 0.11352539 52.56225586 C0.115746 53.59039902 0.11796661 54.61854218 0.12025452 55.67784119 C0 58 0 58 -1 59 C-3.18292774 59.23481693 -5.37203174 59.41363323 -7.5625 59.5625 C-8.76003906 59.64628906 -9.95757813 59.73007812 -11.19140625 59.81640625 C-12.11824219 59.87699219 -13.04507813 59.93757813 -14 60 C-16.30678315 54.0682719 -18.2177429 48.11059576 -20 42 C-20.33 48.27 -20.66 54.54 -21 61 C-25 62 -25 62 -34 62 C-34 42.86 -34 23.72 -34 4 C-30.73118027 3.18279507 -28.53000931 2.88926457 -25.25 2.9375 C-24.45078125 2.94652344 -23.6515625 2.95554687 -22.828125 2.96484375 C-22.22484375 2.97644531 -21.6215625 2.98804688 -21 3 C-20.39226026 4.4777022 -19.78905496 5.95726927 -19.1875 7.4375 C-18.85105469 8.26121094 -18.51460937 9.08492188 -18.16796875 9.93359375 C-16.65330356 13.91022308 -15.34565194 17.96304418 -14 22 C-13.67 15.07 -13.34 8.14 -13 1 C-4 -0.125 -4 -0.125 0 0 Z " fill="#FFFFFF" transform="translate(665,294)"/>
<path d="M0 0 C3.33483285 3.33483285 3.15582673 6.87021377 3.1875 11.4375 C3.20167969 12.36433594 3.21585937 13.29117187 3.23046875 14.24609375 C2.88866085 18.33040848 1.90652753 21.09347247 -1 24 C-0.34805664 24.70213623 0.30388672 25.40427246 0.97558594 26.12768555 C3.31913286 29.45279766 3.47282388 30.94983597 3.390625 34.95703125 C3.37773437 36.06884766 3.36484375 37.18066406 3.3515625 38.32617188 C3.31804687 39.47666016 3.28453125 40.62714844 3.25 41.8125 C3.23195313 42.98232422 3.21390625 44.15214844 3.1953125 45.35742188 C3.14827232 48.23863282 3.07653197 51.11942156 3 54 C-4.425 54.99 -4.425 54.99 -12 56 C-12.495 43.625 -12.495 43.625 -13 31 C-14.485 30.505 -14.485 30.505 -16 30 C-16 38.58 -16 47.16 -16 56 C-26 58 -26 58 -31 58 C-31 38.53 -31 19.06 -31 -1 C-5.07462687 -3.88059701 -5.07462687 -3.88059701 0 0 Z M-16 8 C-16 11.96 -16 15.92 -16 20 C-14.68 19.67 -13.36 19.34 -12 19 C-12 15.7 -12 12.4 -12 9 C-13.32 8.67 -14.64 8.34 -16 8 Z " fill="#FFFFFF" transform="translate(394,331)"/>
<path d="M0 0 C3.42877335 5.75544098 3.77347393 11.39572257 3 18 C1.5 21.6875 1.5 21.6875 0 24 C-0.66 24 -1.32 24 -2 24 C-2 24.66 -2 25.32 -2 26 C-1.360625 26.28875 -0.72125 26.5775 -0.0625 26.875 C2 28 2 28 3 30 C3.084915 31.8863912 3.107193 33.77578515 3.09765625 35.6640625 C3.09443359 36.78554688 3.09121094 37.90703125 3.08789062 39.0625 C3.07532227 40.8259375 3.07532227 40.8259375 3.0625 42.625 C3.05798828 43.80835938 3.05347656 44.99171875 3.04882812 46.2109375 C3.03701467 49.14067507 3.02054258 52.07031272 3 55 C2.01 55.165 1.02 55.33 0 55.5 C-0.556875 55.5928125 -1.11375 55.685625 -1.6875 55.78125 C-5.11049267 56.1050466 -8.56172673 56 -12 56 C-12.495 44.12 -12.495 44.12 -13 32 C-14.485 31.505 -14.485 31.505 -16 31 C-16 39.58 -16 48.16 -16 57 C-23.425 57.99 -23.425 57.99 -31 59 C-31 39.53 -31 20.06 -31 0 C-5.22891566 -3.43614458 -5.22891566 -3.43614458 0 0 Z M-16 9 C-16 12.96 -16 16.92 -16 21 C-14.68 20.67 -13.36 20.34 -12 20 C-12 16.7 -12 13.4 -12 10 C-13.32 9.67 -14.64 9.34 -16 9 Z " fill="#FFFFFF" transform="translate(1145,239)"/>
<path d="M0 0 C-1.57096583 14.16403059 -3.25725335 28.30970592 -5.125 42.4375 C-5.29547852 43.74025879 -5.46595703 45.04301758 -5.64160156 46.38525391 C-5.80370117 47.59745605 -5.96580078 48.8096582 -6.1328125 50.05859375 C-6.27605957 51.13423584 -6.41930664 52.20987793 -6.56689453 53.31811523 C-7 56 -7 56 -8 59 C-15.65074958 60.55123466 -23.21191437 61.48351265 -31 62 C-32.82129036 56.20317271 -33.82836104 50.43292167 -34.7265625 44.4296875 C-34.87910492 43.43043243 -35.03164734 42.43117737 -35.18881226 41.40164185 C-35.50862596 39.29918455 -35.82618179 37.1963827 -36.14160156 35.09326172 C-36.62460966 31.87759871 -37.11647495 28.66337871 -37.609375 25.44921875 C-37.9197995 23.40112172 -38.22971289 21.35294715 -38.5390625 19.3046875 C-38.68590485 18.34625946 -38.83274719 17.38783142 -38.98403931 16.40036011 C-39.11772919 15.50237701 -39.25141907 14.60439392 -39.38916016 13.67919922 C-39.50748199 12.89423065 -39.62580383 12.10926208 -39.74771118 11.30050659 C-40.01646437 8.8498689 -40.04260165 6.46336988 -40 4 C-34.27334636 3.1670322 -28.78307907 2.94378538 -23 3 C-20.70387244 21.82004556 -20.70387244 21.82004556 -21 31 C-20.34 31 -19.68 31 -19 31 C-19.02320313 30.33097656 -19.04640625 29.66195313 -19.0703125 28.97265625 C-19.19175066 22.5104115 -18.81379684 16.22288949 -18.0625 9.8125 C-17.97564941 9.05783447 -17.88879883 8.30316895 -17.79931641 7.52563477 C-17.13057357 2.13057357 -17.13057357 2.13057357 -16 1 C-14.63277529 0.76234935 -13.25488087 0.58484321 -11.875 0.4375 C-10.75738281 0.31181641 -10.75738281 0.31181641 -9.6171875 0.18359375 C-6.4064677 -0.04163585 -3.21749346 -0.02753356 0 0 Z " fill="#FFFFFF" transform="translate(512,313)"/>
<path d="M0 0 C2.49170977 2.18024605 3.3712659 3.15855758 4.5 6.1875 C4.6953125 9.421875 4.6953125 9.421875 4.625 12.9375 C4.60695313 14.10796875 4.58890625 15.2784375 4.5703125 16.484375 C4.54710937 17.37640625 4.52390625 18.2684375 4.5 19.1875 C-0.58086796 20.03431133 -5.34828377 20.27788099 -10.5 20.1875 C-10.83 16.2275 -11.16 12.2675 -11.5 8.1875 C-12.49 8.6825 -12.49 8.6825 -13.5 9.1875 C-14.75282725 12.94598174 -14.62381835 16.44240919 -14.59765625 20.35546875 C-14.59553383 21.54768791 -14.59553383 21.54768791 -14.59336853 22.76399231 C-14.58777378 25.30103325 -14.57522228 27.83798575 -14.5625 30.375 C-14.55748432 32.09570185 -14.55292153 33.81640508 -14.54882812 35.53710938 C-14.53780607 39.7539403 -14.52054506 43.97070516 -14.5 48.1875 C-13.51 47.5275 -12.52 46.8675 -11.5 46.1875 C-10.91651248 43.5318272 -10.91651248 43.5318272 -10.8125 40.5625 C-10.74675781 39.55960937 -10.68101562 38.55671875 -10.61328125 37.5234375 C-10.57589844 36.75257813 -10.53851562 35.98171875 -10.5 35.1875 C-11.49 35.1875 -12.48 35.1875 -13.5 35.1875 C-13.5 31.8875 -13.5 28.5875 -13.5 25.1875 C-4.59 24.1975 -4.59 24.1975 4.5 23.1875 C4.5 33.7475 4.5 44.3075 4.5 55.1875 C1.02674819 56.3452506 -1.86067448 56.25616652 -5.5 56.1875 C-5.5 55.5275 -5.5 54.8675 -5.5 54.1875 C-6.22703125 54.72890625 -6.22703125 54.72890625 -6.96875 55.28125 C-12.09839059 58.83253964 -15.26197843 60.09301926 -21.5 59.1875 C-25.97108671 56.90977658 -28.3949164 54.7169521 -30.5 50.1875 C-30.9299285 47.17550143 -30.92066048 44.19871509 -30.8984375 41.16015625 C-30.90130768 40.29361923 -30.90417786 39.42708221 -30.90713501 38.5342865 C-30.90917153 36.70620061 -30.90367052 34.87809272 -30.89111328 33.05004883 C-30.87507299 30.26268377 -30.89096559 27.47677291 -30.91015625 24.68945312 C-30.90817336 22.90885099 -30.90432875 21.12824975 -30.8984375 19.34765625 C-30.90754654 18.10520897 -30.90754654 18.10520897 -30.9168396 16.83766174 C-30.84386881 10.78609891 -29.72992528 6.48301132 -25.375 2 C-17.2228897 -3.13937389 -8.76685483 -4.53997839 0 0 Z " fill="#FFFFFF" transform="translate(721.5,289.8125)"/>
<path d="M0 0 C3.05764225 3.25490949 3.16322529 6.01587629 3.1875 10.3125 C3.0946875 12.6328125 3.0946875 12.6328125 3 15 C-1.95 15.66 -6.9 16.32 -12 17 C-12 14.03 -12 11.06 -12 8 C-12.99 8 -13.98 8 -15 8 C-15.55761513 12.05827049 -15.55761513 12.05827049 -15 16 C-12.68081374 18.26971028 -9.87183799 19.53332821 -7 21 C-5.35861197 21.97286707 -3.73312991 22.97309046 -2.125 24 C-1.38507812 24.45375 -0.64515625 24.9075 0.1171875 25.375 C3.49351791 28.28901131 3.93337826 31.21178689 4.30078125 35.55859375 C4.30658203 37.47865234 4.30658203 37.47865234 4.3125 39.4375 C4.32925781 40.71496094 4.34601562 41.99242187 4.36328125 43.30859375 C3.88913146 48.1265674 2.77029208 51.50446838 -0.98828125 54.6796875 C-8.13320687 58.35422068 -15.03489208 59.16704878 -23 58 C-25.79171624 56.71932458 -27.48220448 55.70438849 -29.30078125 53.23046875 C-30.25138938 50.19808192 -30.22657161 47.48440436 -30.1875 44.3125 C-30.18105469 43.15363281 -30.17460938 41.99476563 -30.16796875 40.80078125 C-30 38 -30 38 -29 37 C-26.81707226 36.76518307 -24.62796826 36.58636677 -22.4375 36.4375 C-21.23996094 36.35371094 -20.04242187 36.26992188 -18.80859375 36.18359375 C-17.88175781 36.12300781 -16.95492187 36.06242187 -16 36 C-15.67 39.96 -15.34 43.92 -15 48 C-14.01 47.34 -13.02 46.68 -12 46 C-11.15302282 41.89255989 -11.15302282 41.89255989 -12 38 C-14.68618606 35.44172756 -17.7577754 33.76944937 -21 32 C-25.96593423 28.87330067 -29.1149917 26.6550249 -31 21 C-31.61069814 14.80291559 -31.56020995 9.15315163 -28.40625 3.65625 C-21.57310758 -4.3916733 -8.61094055 -4.89641717 0 0 Z " fill="#FFFFFF" transform="translate(943,263)"/>
<path d="M0 0 C0 4.29 0 8.58 0 13 C-3.3 13.33 -6.6 13.66 -10 14 C-10 17.3 -10 20.6 -10 24 C-9.01 23.67 -8.02 23.34 -7 23 C-4.66700175 22.96045766 -2.33291811 22.95598268 0 23 C0 26.96 0 30.92 0 35 C-4.95 35.495 -4.95 35.495 -10 36 C-10 39.63 -10 43.26 -10 47 C-4.555 46.505 -4.555 46.505 1 46 C1 50.29 1 54.58 1 59 C-7.91 59.99 -16.82 60.98 -26 62 C-26 42.53 -26 23.06 -26 3 C-3 0 -3 0 0 0 Z " fill="#FFFFFF" transform="translate(358,331)"/>
<path d="M0 0 C0.02686553 1.97909398 0.04633375 3.95828971 0.0625 5.9375 C0.07410156 7.03964844 0.08570313 8.14179688 0.09765625 9.27734375 C0 12 0 12 -1 13 C-4.00331018 13.14193337 -6.99217134 13.04236378 -10 13 C-9.67 16.3 -9.34 19.6 -9 23 C-6.03 23 -3.06 23 0 23 C0 26.63 0 30.26 0 34 C-3.21451269 35.60725635 -6.43612536 35.05748185 -10 35 C-10 38.96 -10 42.92 -10 47 C-4.555 46.505 -4.555 46.505 1 46 C1.02686553 47.97909398 1.04633375 49.95828971 1.0625 51.9375 C1.07410156 53.03964844 1.08570313 54.14179688 1.09765625 55.27734375 C1 58 1 58 0 59 C-2.66859934 59.4080336 -5.31940986 59.75634123 -8 60.0625 C-8.73089844 60.15337891 -9.46179687 60.24425781 -10.21484375 60.33789062 C-11.31505859 60.46647461 -11.31505859 60.46647461 -12.4375 60.59765625 C-13.09621094 60.67508057 -13.75492188 60.75250488 -14.43359375 60.83227539 C-18.28125966 61.08373529 -22.14412591 61 -26 61 C-26 41.86 -26 22.72 -26 3 C-5 0 -5 0 0 0 Z " fill="#FFFFFF" transform="translate(1109,240)"/>
<path d="M0 0 C0 3.96 0 7.92 0 12 C-3.3 12.33 -6.6 12.66 -10 13 C-10 16.3 -10 19.6 -10 23 C-7.03 22.67 -4.06 22.34 -1 22 C-1 25.96 -1 29.92 -1 34 C-5.455 34.495 -5.455 34.495 -10 35 C-10 38.96 -10 42.92 -10 47 C-9.01 46.505 -9.01 46.505 -8 46 C-4.99525503 45.86440682 -2.00931153 45.95700984 1 46 C1 49.96 1 53.92 1 58 C-2.56195926 58.50413577 -6.12448108 59.00345876 -9.6875 59.5 C-10.69490234 59.64308594 -11.70230469 59.78617187 -12.74023438 59.93359375 C-14.20493164 60.13662109 -14.20493164 60.13662109 -15.69921875 60.34375 C-16.59471436 60.46943359 -17.49020996 60.59511719 -18.4128418 60.72460938 C-20.96530164 60.99630653 -23.43556927 61.01887641 -26 61 C-26.02312851 53.45501767 -26.04091769 45.91003899 -26.05181217 38.36502934 C-26.05703989 34.86191115 -26.0641355 31.35881715 -26.07543945 27.85571289 C-26.08834206 23.83219159 -26.09322912 19.80869586 -26.09765625 15.78515625 C-26.10539818 13.88987938 -26.10539818 13.88987938 -26.11329651 11.95631409 C-26.11337204 10.795186 -26.11344757 9.63405792 -26.11352539 8.43774414 C-26.11685631 6.8955294 -26.11685631 6.8955294 -26.12025452 5.32215881 C-26 3 -26 3 -25 2 C-22.49772187 1.59189035 -20.01533679 1.24148353 -17.5 0.9375 C-16.41428711 0.80335693 -16.41428711 0.80335693 -15.30664062 0.66650391 C-10.16921166 0.06284451 -5.17604773 -0.18485885 0 0 Z " fill="#FFFFFF" transform="translate(471,318)"/>
<path d="M0 0 C0 3.96 0 7.92 0 12 C-3.3 12.33 -6.6 12.66 -10 13 C-10 16.3 -10 19.6 -10 23 C-7.03 22.67 -4.06 22.34 -1 22 C-1 25.96 -1 29.92 -1 34 C-5.455 34.495 -5.455 34.495 -10 35 C-10 38.96 -10 42.92 -10 47 C-8.02 46.505 -8.02 46.505 -6 46 C-3.66699067 45.96111651 -1.33290199 45.9551365 1 46 C1 49.96 1 53.92 1 58 C-2.18659077 58.506478 -5.3740688 59.00535868 -8.5625 59.5 C-9.45775391 59.64308594 -10.35300781 59.78617187 -11.27539062 59.93359375 C-12.59506836 60.13662109 -12.59506836 60.13662109 -13.94140625 60.34375 C-14.74263916 60.46943359 -15.54387207 60.59511719 -16.36938477 60.72460938 C-19.56344737 61.05898549 -22.78848271 61 -26 61 C-26 41.86 -26 22.72 -26 3 C-22.81531355 1.40765677 -19.31274132 1.33693582 -15.8125 0.9375 C-14.6977832 0.80118164 -14.6977832 0.80118164 -13.56054688 0.66210938 C-9.00624025 0.13123928 -4.584522 -0.09108322 0 0 Z " fill="#FFFFFF" transform="translate(428,323)"/>
<path d="M0 0 C0 3.96 0 7.92 0 12 C-3.3 12.33 -6.6 12.66 -10 13 C-10 16.3 -10 19.6 -10 23 C-7.03 22.67 -4.06 22.34 -1 22 C-1 25.96 -1 29.92 -1 34 C-5.455 34.495 -5.455 34.495 -10 35 C-10 38.96 -10 42.92 -10 47 C-9.01 46.505 -9.01 46.505 -8 46 C-4.99525503 45.86440682 -2.00931153 45.95700984 1 46 C1 49.96 1 53.92 1 58 C-2.56195926 58.50413577 -6.12448108 59.00345876 -9.6875 59.5 C-10.69490234 59.64308594 -11.70230469 59.78617187 -12.74023438 59.93359375 C-14.20493164 60.13662109 -14.20493164 60.13662109 -15.69921875 60.34375 C-16.59471436 60.46943359 -17.49020996 60.59511719 -18.4128418 60.72460938 C-21 61 -21 61 -26 61 C-26 41.53 -26 22.06 -26 2 C-6.875 -0.25 -6.875 -0.25 0 0 Z " fill="#FFFFFF" transform="translate(1179,232)"/>
<path d="M0 0 C0 4.29 0 8.58 0 13 C-3.3 13.33 -6.6 13.66 -10 14 C-10 17.3 -10 20.6 -10 24 C-9.01 23.67 -8.02 23.34 -7 23 C-4.66700175 22.96045766 -2.33291811 22.95598268 0 23 C0 26.96 0 30.92 0 35 C-4.95 35.495 -4.95 35.495 -10 36 C-9.67 39.63 -9.34 43.26 -9 47 C-4.05 46.505 -4.05 46.505 1 46 C1 50.29 1 54.58 1 59 C-7.58 59.99 -16.16 60.98 -25 62 C-25 42.53 -25 23.06 -25 3 C-2 0 -2 0 0 0 Z " fill="#FFFFFF" transform="translate(539,309)"/>
<path d="M0 0 C-0.53634311 2.23055634 -1.07868761 4.45937663 -1.625 6.6875 C-1.79813721 7.40156006 -1.97127441 8.11562012 -2.1496582 8.85131836 C-3.15926801 12.92682748 -4.27178487 16.93499056 -5.56640625 20.9296875 C-9.74804639 34.03568238 -11.02641641 46.25780764 -11 60 C-16.08086796 60.84681133 -20.84828377 61.09038099 -26 61 C-25.96777344 59.68773437 -25.93554688 58.37546875 -25.90234375 57.0234375 C-25.87972017 40.46448618 -29.9113286 26.3569014 -35.18969727 10.84301758 C-36 8 -36 8 -36 4 C-31.23692563 3.04738513 -26.8333472 2.91666643 -22 3 C-20.53060547 7.30322683 -19.22556737 11.62297367 -18 16 C-17.79503906 15.00097656 -17.59007812 14.00195312 -17.37890625 12.97265625 C-17.10949219 11.68230469 -16.84007812 10.39195312 -16.5625 9.0625 C-16.29566406 7.77472656 -16.02882813 6.48695313 -15.75390625 5.16015625 C-15 2 -15 2 -14 1 C-9.26396007 0.27755323 -4.79634541 -0.04803207 0 0 Z " fill="#FFFFFF" transform="translate(616,300)"/>
<path d="M0 0 C0 4.29 0 8.58 0 13 C-3.63 13.33 -7.26 13.66 -11 14 C-11 17.3 -11 20.6 -11 24 C-8.03 23.67 -5.06 23.34 -2 23 C-2 26.96 -2 30.92 -2 35 C-6.455 35.495 -6.455 35.495 -11 36 C-11 43.92 -11 51.84 -11 60 C-13.9615696 61.4807848 -16.83506295 61.35314037 -20.125 61.5625 C-21.40632813 61.64628906 -22.68765625 61.73007812 -24.0078125 61.81640625 C-24.99523438 61.87699219 -25.98265625 61.93757813 -27 62 C-27.02312851 54.45501767 -27.04091769 46.91003899 -27.05181217 39.36502934 C-27.05703989 35.86191115 -27.0641355 32.35881715 -27.07543945 28.85571289 C-27.08834206 24.83219159 -27.09322912 20.80869586 -27.09765625 16.78515625 C-27.10539818 14.88987938 -27.10539818 14.88987938 -27.11329651 12.95631409 C-27.11337204 11.795186 -27.11344757 10.63405792 -27.11352539 9.43774414 C-27.11685631 7.8955294 -27.11685631 7.8955294 -27.12025452 6.32215881 C-27 4 -27 4 -26 3 C-24.24822068 2.70182878 -22.48655802 2.46123882 -20.72265625 2.24609375 C-19.65208984 2.11396484 -18.58152344 1.98183594 -17.47851562 1.84570312 C-16.35123047 1.71099609 -15.22394531 1.57628906 -14.0625 1.4375 C-12.93908203 1.29892578 -11.81566406 1.16035156 -10.65820312 1.01757812 C-2.32208282 0 -2.32208282 0 0 0 Z " fill="#FFFFFF" transform="translate(1081,243)"/>
<path d="M0 0 C0 3.96 0 7.92 0 12 C-3.42932071 13.71466036 -7.21716065 13.05404056 -11 13 C-10.67 16.3 -10.34 19.6 -10 23 C-7.36 23 -4.72 23 -2 23 C-1.97312721 24.81242052 -1.95366285 26.62495233 -1.9375 28.4375 C-1.92589844 29.44683594 -1.91429687 30.45617187 -1.90234375 31.49609375 C-2 34 -2 34 -3 35 C-5.64 35 -8.28 35 -11 35 C-11 43.25 -11 51.5 -11 60 C-18 61 -18 61 -27 61 C-27 41.86 -27 22.72 -27 3 C-6 0 -6 0 0 0 Z " fill="#FFFFFF" transform="translate(1052,247)"/>
<path d="M0 0 C0 4.29 0 8.58 0 13 C-4.455 13.495 -4.455 13.495 -9 14 C-9 29.18 -9 44.36 -9 60 C-16.92 60.99 -16.92 60.99 -25 62 C-25 46.82 -25 31.64 -25 16 C-27.97 16.33 -30.94 16.66 -34 17 C-34 12.71 -34 8.42 -34 4 C-29.47952589 3.42876886 -24.9588535 2.85914316 -20.43798828 2.29101562 C-18.89952096 2.0974487 -17.36110912 1.9034403 -15.82275391 1.70898438 C-13.61375067 1.42983245 -11.40455391 1.15225984 -9.1953125 0.875 C-8.16085495 0.74375732 -8.16085495 0.74375732 -7.10549927 0.60986328 C-2.22774341 0 -2.22774341 0 0 0 Z " fill="#FFFFFF" transform="translate(1254,222)"/>
<path d="M0 0 C0.02686553 1.97909398 0.04633375 3.95828971 0.0625 5.9375 C0.07410156 7.03964844 0.08570313 8.14179688 0.09765625 9.27734375 C0 12 0 12 -1 13 C-3.64 13 -6.28 13 -9 13 C-9 28.51 -9 44.02 -9 60 C-16 61 -16 61 -25 61 C-25 46.15 -25 31.3 -25 16 C-27.97 16 -30.94 16 -34 16 C-34 12.04 -34 8.08 -34 4 C-29.8012334 3.42695599 -25.60201355 2.85739311 -21.40234375 2.29101562 C-19.97448049 2.09795607 -18.54674419 1.90395498 -17.11914062 1.70898438 C-15.06413102 1.4284956 -13.0086848 1.15142416 -10.953125 0.875 C-9.71723633 0.70742188 -8.48134766 0.53984375 -7.20800781 0.3671875 C-4 0 -4 0 0 0 Z " fill="#FFFFFF" transform="translate(803,277)"/>
<path d="M0 0 C0.02686553 1.97909398 0.04633375 3.95828971 0.0625 5.9375 C0.07410156 7.03964844 0.08570313 8.14179688 0.09765625 9.27734375 C0 12 0 12 -1 13 C-3.64 13 -6.28 13 -9 13 C-9 28.51 -9 44.02 -9 60 C-16 61 -16 61 -25 61 C-25.33 46.15 -25.66 31.3 -26 16 C-28.64 16 -31.28 16 -34 16 C-34 12.04 -34 8.08 -34 4 C-29.8012334 3.42695599 -25.60201355 2.85739311 -21.40234375 2.29101562 C-19.97448049 2.09795607 -18.54674419 1.90395498 -17.11914062 1.70898438 C-15.06413102 1.4284956 -13.0086848 1.15142416 -10.953125 0.875 C-9.71723633 0.70742188 -8.48134766 0.53984375 -7.20800781 0.3671875 C-4 0 -4 0 0 0 Z " fill="#FFFFFF" transform="translate(911,264)"/>
<path d="M0 0 C0 19.14 0 38.28 0 58 C-2.9615696 59.4807848 -5.83506295 59.35314037 -9.125 59.5625 C-10.40632812 59.64628906 -11.68765625 59.73007812 -13.0078125 59.81640625 C-13.99523437 59.87699219 -14.98265625 59.93757813 -16 60 C-16.02312851 52.45501767 -16.04091769 44.91003899 -16.05181217 37.36502934 C-16.05703989 33.86191115 -16.0641355 30.35881715 -16.07543945 26.85571289 C-16.08834206 22.83219159 -16.09322912 18.80869586 -16.09765625 14.78515625 C-16.10539818 12.88987938 -16.10539818 12.88987938 -16.11329651 10.95631409 C-16.11337204 9.795186 -16.11344757 8.63405792 -16.11352539 7.43774414 C-16.11685631 5.8955294 -16.11685631 5.8955294 -16.12025452 4.32215881 C-16 2 -16 2 -15 1 C-9.81286267 0.19509938 -5.33658427 0 0 0 Z " fill="#FFFFFF" transform="translate(1020,251)"/>
<path d="M0 0 C0 19.47 0 38.94 0 59 C-7.92 59.99 -7.92 59.99 -16 61 C-16 41.53 -16 22.06 -16 2 C-1 0 -1 0 0 0 Z " fill="#FFFFFF" transform="translate(686,291)"/>
<path d="M0 0 C0 19.47 0 38.94 0 59 C-7.425 59.99 -7.425 59.99 -15 61 C-15 41.53 -15 22.06 -15 2 C-1 0 -1 0 0 0 Z " fill="#FFFFFF" transform="translate(874,268)"/>
</svg>
